<svg width="330" height="126" viewBox="0 0 330 126" fill="none" xmlns="http://www.w3.org/2000/svg">
<path d="M97.2353 34.4659C99.3833 35.1003 101.262 35.9105 102.916 36.8633C112.373 42.3092 114.493 52.4063 117.577 60.8773C126.068 84.2048 97.1827 102.115 81.0782 107.977C64.9734 113.839 31.334 118.685 22.8434 95.3575C19.7603 86.8863 14.8947 77.7884 18.6381 67.5379M102.916 36.8633C107.947 37.7589 105.729 28.3627 104.671 25.419L100.596 14.2224C97.064 4.518 89.2101 3.57239 83.5261 5.64119C77.8422 7.70998 69.8696 21.1782 66.0803 22.5574C61.533 24.2125 60.3182 23.5987 51.531 26.797C42.7445 29.995 42.2078 31.2463 37.6606 32.9014C33.8712 34.2806 19.1068 29.0872 13.4228 31.156C7.73881 33.2248 2.33016 38.9976 5.86226 48.7019L9.93776 59.8993C11.019 62.8344 15.3599 71.4579 18.6381 67.5379M18.6381 67.5379C19.293 65.7447 20.2115 63.9165 21.449 62.0499" stroke="black" stroke-width="9.47486" stroke-linecap="round"/>
<path d="M87.9284 62.1584C88.8661 64.7347 88.3407 67.2916 86.7541 67.869C85.1681 68.4463 83.1222 66.8253 82.1845 64.249C81.2466 61.6721 81.7719 59.1152 83.3579 58.5379C84.9445 57.9605 86.9905 59.5815 87.9284 62.1584Z" stroke="black" stroke-width="9.47486"/>
<path d="M52.3146 75.1207C53.2523 77.697 52.7267 80.254 51.1405 80.8313C49.5543 81.4087 47.5081 79.7877 46.5704 77.2114C45.6325 74.6345 46.158 72.0776 47.7443 71.5002C49.3305 70.9229 51.3767 72.5438 52.3146 75.1207Z" stroke="black" stroke-width="9.47486"/>
<path d="M145.924 88.5249C145.924 92.1099 144.051 93.9024 140.306 93.9024C138.487 93.9024 137.042 93.4476 135.972 92.538C134.902 91.6284 134.367 90.2907 134.367 88.5249V55.3772C134.367 49.0633 135.704 44.3012 138.38 41.0907C141.109 37.8268 145.122 36.1948 150.419 36.1948C154.325 36.1948 157.562 36.9974 160.13 38.6026C162.699 40.2078 164.411 42.5087 165.267 45.5051C166.123 42.5087 167.835 40.2078 170.404 38.6026C172.972 36.9974 176.263 36.1948 180.276 36.1948C185.734 36.1948 189.773 37.7733 192.395 40.9302C195.017 44.0336 196.328 48.8493 196.328 55.3772V87.7223C196.328 89.9161 195.9 91.4946 195.044 92.4577C194.188 93.4209 192.743 93.9024 190.71 93.9024C188.677 93.9024 187.178 93.4209 186.215 92.4577C185.252 91.4411 184.77 89.8626 184.77 87.7223V54.7351C184.77 49.4379 182.496 46.7892 177.948 46.7892C175.647 46.7892 173.935 47.5651 172.812 49.1168C171.688 50.615 171.126 53.0228 171.126 56.3403V86.9197C171.126 89.1135 170.698 90.692 169.842 91.6551C168.986 92.6183 167.541 93.0998 165.508 93.0998C163.475 93.0998 161.976 92.6183 161.013 91.6551C160.05 90.6385 159.569 89.06 159.569 86.9197V56.3403C159.569 49.9729 157.294 46.7892 152.746 46.7892C148.198 46.7892 145.924 49.4379 145.924 54.7351V88.5249ZM211.46 93.9024C207.607 93.9024 205.681 92.0832 205.681 88.4447V58.0258C205.681 54.3338 207.607 52.4878 211.46 52.4878C213.386 52.4878 214.777 52.9158 215.633 53.772C216.489 54.5746 216.917 55.9122 216.917 57.785C217.881 56.0193 219.245 54.7083 221.011 53.8522C222.83 52.9426 224.944 52.4878 227.351 52.4878C231.953 52.4878 234.254 54.4943 234.254 58.5073C234.254 60.0056 233.692 61.1292 232.568 61.8783C231.445 62.6274 229.599 63.002 227.03 63.002C224.516 63.002 222.536 63.2427 221.091 63.7243C219.646 64.1524 218.63 64.9817 218.041 66.2124C217.506 67.3896 217.239 69.1018 217.239 71.3491V88.4447C217.239 92.0832 215.312 93.9024 211.46 93.9024ZM242.498 93.9024C238.646 93.9024 236.719 92.0832 236.719 88.4447V58.0258C236.719 54.3338 238.646 52.4878 242.498 52.4878C244.424 52.4878 245.816 52.9158 246.672 53.772C247.528 54.5746 247.956 55.9122 247.956 57.785C248.919 56.0193 250.283 54.7083 252.049 53.8522C253.868 52.9426 255.982 52.4878 258.39 52.4878C262.991 52.4878 265.292 54.4943 265.292 58.5073C265.292 60.0056 264.73 61.1292 263.607 61.8783C262.483 62.6274 260.637 63.002 258.069 63.002C255.554 63.002 253.574 63.2427 252.129 63.7243C250.685 64.1524 249.668 64.9817 249.08 66.2124C248.544 67.3896 248.277 69.1018 248.277 71.3491V88.4447C248.277 92.0832 246.351 93.9024 242.498 93.9024ZM271.581 111.72C267.675 111.72 265.722 109.634 265.722 105.46V73.8372C265.722 66.5602 267.327 61.1292 270.537 57.5442C273.748 53.9592 278.243 52.1667 284.021 52.1667C289.907 52.1667 294.535 54.0395 297.906 57.785C301.331 61.5305 303.043 74.2385 303.043 74.2385C303.043 79.0542 302.348 82.9067 300.956 85.7961C299.565 88.632 297.639 90.692 295.178 91.9762C295.525 93.2603 292.689 93.9024 289.479 93.9024C286.697 93.9024 284.396 93.5011 282.576 92.6985C280.811 91.8959 279.42 90.6652 278.403 89.0065C278.777 90.0767 279.045 91.1201 279.206 92.1367C279.42 93.1533 279.553 94.3305 279.607 95.6682C279.715 97.0059 279.768 98.7181 279.768 100.805V105.46C279.768 109.634 277.976 111.72 271.581 111.72ZM284.583 84.5119C286.83 84.5119 288.569 83.736 289.8 82.1843C291.084 80.5791 291.726 77.5827 291.726 73.1951C291.726 68.8075 291.084 65.8378 289.8 64.2861C288.569 62.6809 286.83 61.8783 284.583 61.8783C282.336 61.8783 280.57 62.6809 279.286 64.2861C278.055 65.8378 277.44 68.8075 277.44 73.1951C277.44 77.5827 278.055 80.5791 279.286 82.1843C280.57 83.736 282.336 84.5119 284.583 84.5119ZM317.362 76.4858C315.275 76.4858 313.777 76.0042 312.868 75.0411C312.011 74.0245 311.583 72.6868 311.583 71.0281V41.6525C311.583 39.9403 312.011 38.6026 312.868 37.6395C313.777 36.6764 315.275 36.1948 317.362 36.1948C319.449 36.1948 320.92 36.6764 321.777 37.6395C322.686 38.6026 323.141 39.9403 323.141 41.6525V71.0281C323.141 72.6868 322.686 74.0245 321.777 75.0411C320.92 76.0042 319.449 76.4858 317.362 76.4858ZM317.362 93.9024C315.436 93.9024 313.884 93.3139 312.707 92.1367C311.583 90.9595 311.022 89.4613 311.022 87.6421C311.022 85.7693 311.583 84.2444 312.707 83.0672C313.884 81.89 315.436 81.3015 317.362 81.3015C319.235 81.3015 320.76 81.89 321.937 83.0672C323.114 84.2444 323.703 85.7693 323.703 87.6421C323.703 89.4613 323.114 90.9595 321.937 92.1367C320.76 93.3139 319.235 93.9024 317.362 93.9024Z" fill="black"/>
</svg>
